<?xml version="1.0" encoding="iso-8859-1"?>
<!-- Generator: Adobe Illustrator 19.0.0, SVG Export Plug-In . SVG Version: 6.00 Build 0)  -->
<svg version="1.1" id="Layer_1" xmlns="http://www.w3.org/2000/svg" xmlns:xlink="http://www.w3.org/1999/xlink" x="0px" y="0px"
	  width="150" height="150" viewBox="0 0 503.467 503.467" style="enable-background:new 0 0 503.467 503.467;" xml:space="preserve">
<g transform="translate(5 1)">
	<path style="fill:#AAB1BA;" d="M460.067,122.733h-85.333c-18.773,0-34.133-15.36-34.133-34.133V3.267L460.067,122.733z"/>
	<path style="fill:#F2EDDA;" d="M84.6,250.733c0,33.28,26.453,59.733,59.733,59.733s59.733-26.453,59.733-59.733
		S177.613,191,144.333,191S84.6,217.453,84.6,250.733L84.6,250.733z M101.667,3.267H340.6V88.6c0,18.773,15.36,34.133,34.133,34.133
		h85.333v341.333c0,18.773-15.36,34.133-34.133,34.133h-358.4c-18.773,0-34.133-15.36-34.133-34.133V37.4
		c0-18.773,15.36-34.133,34.133-34.133H101.667z M144.333,37.4c-33.28,0-59.733,26.453-59.733,59.733s26.453,59.733,59.733,59.733
		s59.733-26.453,59.733-59.733S177.613,37.4,144.333,37.4L144.333,37.4z"/>
	<path style="fill:#FFD0A1;" d="M144.333,37.4c33.28,0,59.733,26.453,59.733,59.733s-26.453,59.733-59.733,59.733
		S84.6,130.413,84.6,97.133S111.053,37.4,144.333,37.4z M144.333,191c33.28,0,59.733,26.453,59.733,59.733
		s-26.453,59.733-59.733,59.733S84.6,284.013,84.6,250.733S111.053,191,144.333,191z"/>
</g>
<path style="fill:#51565F;" d="M430.933,503.467h-358.4c-21.333,0-38.4-17.067-38.4-38.4V38.4C34.133,17.067,51.2,0,72.533,0
	c2.56,0,4.267,1.707,4.267,4.267s-1.707,4.267-4.267,4.267c-16.213,0-29.867,13.653-29.867,29.867v426.667
	c0,16.213,13.653,29.867,29.867,29.867h358.4c17.067,0,29.867-12.8,29.867-29.867V128h-81.067c-21.333,0-38.4-17.067-38.4-38.4
	V46.933c0-2.56,1.707-4.267,4.267-4.267s4.267,1.707,4.267,4.267V89.6c0,16.213,13.653,29.867,29.867,29.867h85.333
	c2.56,0,4.267,1.707,4.267,4.267v341.333C469.333,486.4,452.267,503.467,430.933,503.467z M345.6,418.133h-85.333
	c-2.56,0-4.267-1.707-4.267-4.267c0-2.56,1.707-4.267,4.267-4.267H345.6c2.56,0,4.267,1.707,4.267,4.267
	C349.867,416.427,348.16,418.133,345.6,418.133z M226.133,418.133h-102.4c-2.56,0-4.267-1.707-4.267-4.267
	c0-2.56,1.707-4.267,4.267-4.267h102.4c2.56,0,4.267,1.707,4.267,4.267C230.4,416.427,228.693,418.133,226.133,418.133z
	 M379.733,366.933h-51.2c-2.56,0-4.267-1.707-4.267-4.267s1.707-4.267,4.267-4.267h51.2c2.56,0,4.267,1.707,4.267,4.267
	S382.293,366.933,379.733,366.933z M294.4,366.933h-85.333c-2.56,0-4.267-1.707-4.267-4.267s1.707-4.267,4.267-4.267H294.4
	c2.56,0,4.267,1.707,4.267,4.267S296.96,366.933,294.4,366.933z M174.933,366.933h-51.2c-2.56,0-4.267-1.707-4.267-4.267
	s1.707-4.267,4.267-4.267h51.2c2.56,0,4.267,1.707,4.267,4.267S177.493,366.933,174.933,366.933z M106.667,332.8
	c-2.56,0-4.267-1.707-4.267-4.267v-33.28c-10.24-11.093-17.067-26.453-17.067-43.52c0-16.213,5.973-30.72,15.36-41.813
	c-5.973-4.267-15.36-15.36-15.36-34.987s9.387-30.72,15.36-34.987c-9.387-11.093-15.36-25.6-15.36-41.813
	c0-17.067,6.827-32.427,17.067-43.52V4.267c0-2.56,1.707-4.267,4.267-4.267H345.6c0.853,0,2.56,0.853,3.413,0.853l85.333,85.333
	c1.707,1.707,1.707,4.267,0,5.973c-1.707,1.707-4.267,1.707-5.973,0l-84.48-84.48h-232.96v38.4c11.093-7.68,23.893-12.8,38.4-12.8
	c34.987,0,64,29.013,64,64s-29.013,64-64,64c-16.213,0-31.573-5.973-42.667-16.213c-4.267,2.56-12.8,11.093-12.8,29.013
	s8.533,26.453,12.8,29.013c11.093-10.24,26.453-16.213,42.667-16.213c34.987,0,64,29.013,64,64s-29.013,64-64,64
	c-14.507,0-27.307-5.12-38.4-12.8v25.6C110.933,331.093,109.227,332.8,106.667,332.8z M149.333,196.267
	c-30.72,0-55.467,24.747-55.467,55.467s24.747,55.467,55.467,55.467s55.467-24.747,55.467-55.467S180.053,196.267,149.333,196.267z
	 M149.333,42.667c-30.72,0-55.467,24.747-55.467,55.467s24.747,55.467,55.467,55.467S204.8,128.853,204.8,98.133
	S180.053,42.667,149.333,42.667z M362.667,315.733h-128c-2.56,0-4.267-1.707-4.267-4.267c0-2.56,1.707-4.267,4.267-4.267h128
	c2.56,0,4.267,1.707,4.267,4.267C366.933,314.027,365.227,315.733,362.667,315.733z M362.667,264.533h-34.133
	c-2.56,0-4.267-1.707-4.267-4.267c0-2.56,1.707-4.267,4.267-4.267h34.133c2.56,0,4.267,1.707,4.267,4.267
	C366.933,262.827,365.227,264.533,362.667,264.533z M294.4,264.533h-42.667c-2.56,0-4.267-1.707-4.267-4.267
	c0-2.56,1.707-4.267,4.267-4.267H294.4c2.56,0,4.267,1.707,4.267,4.267C298.667,262.827,296.96,264.533,294.4,264.533z
	 M172.373,244.907c-0.853,0-2.56-0.853-3.413-1.707l-11.947-11.947c-1.707-1.707-1.707-3.413,0-5.12
	c0.853-1.707,3.413-2.56,5.12-0.853c5.973,3.413,11.093,7.68,13.653,13.653c0.853,1.707,0,4.267-1.707,5.12
	C174.08,244.907,173.227,244.907,172.373,244.907z M379.733,213.333h-68.267c-2.56,0-4.267-1.707-4.267-4.267
	c0-2.56,1.707-4.267,4.267-4.267h68.267c2.56,0,4.267,1.707,4.267,4.267C384,211.627,382.293,213.333,379.733,213.333z
	 M277.333,213.333H243.2c-2.56,0-4.267-1.707-4.267-4.267c0-2.56,1.707-4.267,4.267-4.267h34.133c2.56,0,4.267,1.707,4.267,4.267
	C281.6,211.627,279.893,213.333,277.333,213.333z M172.373,91.307c-0.853,0-2.56-0.853-3.413-1.707l-11.947-11.947
	c-1.707-1.707-1.707-3.413,0-5.12c0.853-1.707,3.413-2.56,5.12-0.853c5.973,3.413,11.093,7.68,13.653,13.653
	c0.853,1.707,0,4.267-1.707,5.12C174.08,91.307,173.227,91.307,172.373,91.307z"/>
<g>
</g>
<g>
</g>
<g>
</g>
<g>
</g>
<g>
</g>
<g>
</g>
<g>
</g>
<g>
</g>
<g>
</g>
<g>
</g>
<g>
</g>
<g>
</g>
<g>
</g>
<g>
</g>
<g>
</g>
</svg>
