<?xml version="1.0" encoding="iso-8859-1"?>
<!-- Generator: Adobe Illustrator 19.0.0, SVG Export Plug-In . SVG Version: 6.00 Build 0)  -->
<svg version="1.1" id="Layer_1" xmlns="http://www.w3.org/2000/svg" xmlns:xlink="http://www.w3.org/1999/xlink" x="0px" y="0px"
	  width="150" height="150" viewBox="0 0 512 512" style="enable-background:new 0 0 512 512;" xml:space="preserve">
<path style="fill:#F5DF5D;" d="M129.519,315.692c0-90.326,70.777-114.415,70.777-164.199h111.416
	c0,49.784,70.776,73.873,70.776,164.199c0,69.856-56.629,126.485-126.485,126.485C186.148,442.177,129.519,385.548,129.519,315.692z
	"/>
<path style="fill:#FFFFFF;" d="M297.806,365.6c-2.765,0-5.454-1.435-6.936-4.001l-7.002-12.129l-7.003,12.129
	c-1.429,2.475-4.071,4-6.929,4l0,0c-2.859,0-5.499-1.525-6.929-4l-7.002-12.129l-7.002,12.129c-1.429,2.475-4.071,4-6.929,4
	s-5.499-1.525-6.929-4l-7.003-12.129l-7.002,12.129c-2.21,3.826-7.103,5.136-10.929,2.928c-3.826-2.209-5.137-7.102-2.928-10.929
	l13.932-24.13c1.429-2.475,4.07-4,6.929-4c2.858,0,5.499,1.525,6.929,4l7.003,12.129l7.003-12.129c1.429-2.475,4.07-4,6.928-4
	c2.859,0,5.499,1.525,6.929,4l7.002,12.129l7.003-12.129c1.429-2.475,4.071-4,6.929-4l0,0c2.859,0,5.499,1.525,6.928,4l13.932,24.13
	c2.209,3.826,0.898,8.72-2.928,10.929C300.539,365.254,299.163,365.6,297.806,365.6z"/>
<g style="opacity:0.15;">
	<path d="M195.464,336.473c-4.418,0-8.001-3.582-8.001-8.001c0-36.441,10.13-62.393,19.926-87.49
		c9.868-25.285,20.074-51.43,20.074-89.489c0-4.418,3.582-8.001,8.001-8.001c4.418,0,8.001,3.582,8.001,8.001
		c0,41.071-10.761,68.643-21.17,95.306c-9.684,24.809-18.83,48.244-18.83,81.673C203.465,332.892,199.883,336.473,195.464,336.473z"
		/>
	<path d="M316.536,336.473c-4.418,0-8.001-3.582-8.001-8.001c0-33.429-9.146-56.863-18.83-81.673
		c-10.407-26.664-21.17-54.237-21.17-95.306c0-4.418,3.582-8.001,8.001-8.001s8.001,3.582,8.001,8.001
		c0,38.058,10.204,64.203,20.074,89.489c9.796,25.097,19.926,51.049,19.926,87.49C324.536,332.892,320.954,336.473,316.536,336.473z
		"/>
</g>
<path style="opacity:0.1;enable-background:new    ;" d="M144.717,308.911c0-69.004,50.92-94.8,65.044-140.384h104.794
	c-1.807-5.413-2.843-11.036-2.843-17.033H200.296c0,49.784-70.777,73.873-70.777,164.199c0,69.856,56.629,126.485,126.485,126.485
	c20.27,0,39.422-4.776,56.404-13.252c-12.533,4.156-27.282,6.471-41.206,6.471C201.346,435.396,144.717,378.767,144.717,308.911z"/>
<g>
	<path style="opacity:0.3;fill:#FFFFFF;enable-background:new    ;" d="M358.51,234.657c-0.352-0.005-0.7-0.027-1.054-0.027
		c-35.828,0-64.872,29.044-64.872,64.872s29.044,64.872,64.872,64.872c5.575,0,10.984-0.705,16.146-2.027
		c5.733-14.436,8.886-30.177,8.886-46.655C382.49,280.393,371.68,255.211,358.51,234.657z"/>
	<circle style="opacity:0.3;fill:#FFFFFF;enable-background:new    ;" cx="300.161" cy="387.581" r="18.511"/>
</g>
<circle style="fill:#7E858B;" cx="255.998" cy="31.514" r="23.511"/>
<path style="opacity:0.1;fill:#FFFFFF;enable-background:new    ;" d="M265.867,10.171c-2.727,2.922-4.407,6.833-4.407,11.143
	c0,9.033,7.323,16.356,16.356,16.356c0.3,0,0.592-0.029,0.889-0.045c0.524-1.95,0.807-3.998,0.807-6.114
	C279.513,22.053,273.922,13.903,265.867,10.171z"/>
<circle style="fill:#394049;" cx="255.998" cy="85.969" r="56.612"/>
<path style="opacity:0.1;fill:#FFFFFF;enable-background:new    ;" d="M275.016,32.635c-4.907,6.536-7.815,14.657-7.815,23.459
	c0,21.602,17.512,39.114,39.114,39.114c1.905,0,3.776-0.143,5.608-0.406c0.451-2.88,0.69-5.83,0.69-8.837
	C312.613,61.371,296.927,40.449,275.016,32.635z"/>
<path style="fill:#7E858B;" d="M319.905,85.965H192.104c-6.781,0-12.278,5.497-12.278,12.278v40.972
	c0,6.781,5.497,12.278,12.278,12.278h127.801c6.781,0,12.278-5.497,12.278-12.278V98.243
	C332.183,91.463,326.686,85.965,319.905,85.965z"/>
<path style="opacity:0.1;enable-background:new    ;" d="M326.762,144.636H198.961c-6.781,0-12.278-5.497-12.278-12.278V91.386
	c0-1.607,0.318-3.136,0.878-4.542c-4.53,1.807-7.736,6.226-7.736,11.4v40.972c0,6.781,5.497,12.278,12.278,12.278h127.801
	c5.175,0,9.593-3.206,11.4-7.736C329.898,144.318,328.368,144.636,326.762,144.636z"/>
<rect x="179.822" y="110.728" style="opacity:0.2;enable-background:new    ;" width="152.353" height="16.001"/>
<path style="opacity:0.1;fill:#FFFFFF;enable-background:new    ;" d="M319.905,85.965H287.84c-0.269,1.715-0.412,3.472-0.412,5.263
	c0,18.619,15.093,33.712,33.712,33.712c3.869,0,7.581-0.66,11.043-1.86V98.243C332.183,91.463,326.686,85.965,319.905,85.965z"/>
<path d="M144.09,413.648l-28.767,28.767c-3.124,3.124-3.124,8.19,0,11.314c1.562,1.563,3.61,2.344,5.657,2.344
	c2.047,0,4.095-0.781,5.657-2.344l28.767-28.767c3.124-3.124,3.124-8.19,0-11.314C152.28,410.523,147.214,410.523,144.09,413.648z
	 M345.629,203.339c-12.338-15.889-22.46-28.934-25.187-43.872c10.932-0.289,19.741-9.252,19.741-20.252V98.243
	c0-11.115-8.991-20.16-20.082-20.268c-2.582-20.823-15.098-38.6-32.655-48.426C286.428,13.085,272.716,0,256,0
	s-30.428,13.085-31.447,29.549c-17.559,9.826-30.075,27.603-32.656,48.426c-11.086,0.112-20.073,9.156-20.073,20.268v40.972
	c0,11,8.809,19.963,19.741,20.252c-2.727,14.938-12.849,27.983-25.187,43.872c-19.987,25.738-44.861,57.772-44.861,112.353
	c0,74.156,60.33,134.486,134.486,134.486s134.486-60.33,134.486-134.486C390.49,261.111,365.616,229.079,345.629,203.339z
	 M256,16.001c5.24,0,9.872,2.618,12.681,6.607c-4.103-0.82-8.342-1.257-12.681-1.257c-4.34,0-8.579,0.437-12.681,1.257
	C246.128,18.619,250.76,16.001,256,16.001z M256,37.353c24.08,0,44.114,17.601,47.943,40.612h-95.886
	C211.885,54.955,231.92,37.353,256,37.353z M187.826,139.215V98.243c0-2.359,1.919-4.278,4.278-4.278h127.801
	c2.359,0,4.278,1.919,4.278,4.278v40.972c0,2.359-1.919,4.278-4.278,4.278H192.103C189.744,143.493,187.826,141.574,187.826,139.215
	z M256.004,434.177c-65.333,0-118.485-53.152-118.485-118.485c0-49.098,22.046-77.491,41.498-102.539
	c13.336-17.174,26.008-33.508,28.734-53.658h96.508c2.724,20.151,15.397,36.485,28.733,53.658
	c19.451,25.049,41.497,53.441,41.497,102.539C374.489,381.025,321.336,434.177,256.004,434.177z M256,455.315
	c-4.418,0-8.001,3.582-8.001,8.001v40.684c0,4.418,3.582,8.001,8.001,8.001s8.001-3.582,8.001-8.001v-40.684
	C264.001,458.897,260.418,455.315,256,455.315z M105.735,305.051H65.052c-4.418,0-8.001,3.582-8.001,8.001
	c0,4.418,3.582,8.001,8.001,8.001h40.683c4.418,0,8.001-3.582,8.001-8.001C113.735,308.633,110.153,305.051,105.735,305.051z
	 M446.948,305.051h-40.684c-4.418,0-8.001,3.582-8.001,8.001c0,4.418,3.582,8.001,8.001,8.001h40.684
	c4.418,0,8.001-3.582,8.001-8.001C454.948,308.633,451.366,305.051,446.948,305.051z M367.91,413.648
	c-3.124-3.124-8.19-3.124-11.314,0c-3.124,3.124-3.124,8.19,0,11.314l28.767,28.767c1.562,1.562,3.61,2.344,5.657,2.344
	s4.095-0.781,5.657-2.344c3.125-3.124,3.125-8.19,0-11.314L367.91,413.648z"/>
<g>
</g>
<g>
</g>
<g>
</g>
<g>
</g>
<g>
</g>
<g>
</g>
<g>
</g>
<g>
</g>
<g>
</g>
<g>
</g>
<g>
</g>
<g>
</g>
<g>
</g>
<g>
</g>
<g>
</g>
</svg>
