<?xml version="1.0" encoding="iso-8859-1"?>
<!-- Generator: Adobe Illustrator 19.0.0, SVG Export Plug-In . SVG Version: 6.00 Build 0)  -->
<svg version="1.1" id="Layer_1" xmlns="http://www.w3.org/2000/svg" xmlns:xlink="http://www.w3.org/1999/xlink" x="0px" y="0px"
	  width="150" height="150" viewBox="0 0 511.986 511.986" style="enable-background:new 0 0 511.986 511.986;" xml:space="preserve">
<path style="fill:#E5E8EC;" d="M479.986,479.985H31.999C14.351,479.985,0,465.642,0,447.986v-31.999h511.986v31.999
	C511.986,465.642,497.642,479.985,479.986,479.985z"/>
<rect x="61.533" y="69.593" style="fill:#4FC0E8;" width="194.46" height="357.07"/>
<g>
	<path style="fill:#E5E8EC;" d="M42.397,53.333V437.33h416.527V53.333H42.397z M437.582,415.987H63.733V74.668h373.849V415.987z"/>
	<rect x="245.333" y="63.993" style="fill:#E5E8EC;" width="21.328" height="362.66"/>
</g>
<path style="fill:#424953;" d="M223.993,277.335c-5.891,0-10.664-4.781-10.664-10.672v-42.671c0-5.89,4.773-10.664,10.664-10.664
	s10.664,4.773,10.664,10.664v42.671C234.658,272.554,229.884,277.335,223.993,277.335z"/>
<g>
	<path style="fill:#3BAFDA;" d="M85.333,127.995c-2.734,0-5.461-1.039-7.547-3.117c-4.164-4.172-4.164-10.922,0-15.086
		l21.335-21.335c4.164-4.164,10.922-4.164,15.085,0c4.164,4.164,4.164,10.921,0,15.085l-21.335,21.336
		C90.786,126.956,88.06,127.995,85.333,127.995z"/>
	<path style="fill:#3BAFDA;" d="M85.333,170.666c-2.734,0-5.461-1.047-7.547-3.125c-4.164-4.164-4.164-10.922,0-15.086
		l63.999-63.999c4.164-4.164,10.922-4.164,15.085,0c4.164,4.164,4.164,10.921,0,15.085L92.872,167.54
		C90.786,169.619,88.06,170.666,85.333,170.666z"/>
</g>
<g>
	<path style="fill:#F4F6F9;" d="M426.644,437.33c5.906,0,10.688-4.781,10.688-10.672v-10.671h-21.344v10.671
		C415.988,432.549,420.769,437.33,426.644,437.33z"/>
	<path style="fill:#F4F6F9;" d="M469.33,437.33c5.875,0,10.656-4.781,10.656-10.672v-10.671h-21.343v10.671
		C458.643,432.549,463.425,437.33,469.33,437.33z"/>
	<path style="fill:#F4F6F9;" d="M383.989,437.33c5.891,0,10.655-4.781,10.655-10.672v-10.671h-21.311v10.671
		C373.334,432.549,378.098,437.33,383.989,437.33z"/>
	<path style="fill:#F4F6F9;" d="M341.335,437.33c5.875,0,10.656-4.781,10.656-10.672v-10.671h-21.344v10.671
		C330.647,432.549,335.429,437.33,341.335,437.33z"/>
	<path style="fill:#F4F6F9;" d="M298.648,437.33c5.905,0,10.687-4.781,10.687-10.672v-10.671h-21.343v10.671
		C287.992,432.549,292.773,437.33,298.648,437.33z"/>
	<path style="fill:#F4F6F9;" d="M255.993,437.33c5.891,0,10.664-4.781,10.664-10.672v-10.671h-21.328v10.671
		C245.329,432.549,250.102,437.33,255.993,437.33z"/>
	<path style="fill:#F4F6F9;" d="M213.33,437.33c5.89,0,10.664-4.781,10.664-10.672v-10.671h-21.335v10.671
		C202.658,432.549,207.439,437.33,213.33,437.33z"/>
	<path style="fill:#F4F6F9;" d="M170.66,437.33c5.898,0,10.671-4.781,10.671-10.672v-10.671h-21.335v10.671
		C159.995,432.549,164.769,437.33,170.66,437.33z"/>
	<path style="fill:#F4F6F9;" d="M127.996,437.33c5.891,0,10.664-4.781,10.664-10.672v-10.671h-21.328v10.671
		C117.332,432.549,122.106,437.33,127.996,437.33z"/>
	<path style="fill:#F4F6F9;" d="M85.333,437.33c5.891,0,10.664-4.781,10.664-10.672v-10.671H74.662v10.671
		C74.662,432.549,79.443,437.33,85.333,437.33z"/>
	<path style="fill:#F4F6F9;" d="M42.663,437.33c5.891,0,10.671-4.781,10.671-10.672v-10.671H31.999v10.671
		C31.999,432.549,36.772,437.33,42.663,437.33z"/>
</g>
<polygon style="fill:#4FC0E8;" points="330.647,447.986 458.643,426.658 458.643,63.997 330.647,42.67 "/>
<path style="fill:#F4F6F9;" d="M330.647,458.658c-2.5,0-4.938-0.891-6.875-2.531c-2.406-2.016-3.781-5-3.781-8.141V42.67
	c0-3.133,1.375-6.117,3.781-8.141c2.375-2.023,5.547-2.898,8.641-2.383l127.996,21.335c5.14,0.852,8.921,5.304,8.921,10.515v362.661
	c0,5.203-3.781,9.672-8.921,10.516l-127.996,21.344C331.835,458.611,331.241,458.658,330.647,458.658z M341.335,55.263v380.129
	l106.652-17.78V73.035L341.335,55.263z"/>
<path style="fill:#424953;" d="M362.584,276.429c-5.905,0-10.687-4.766-10.687-10.656V223.11c0-5.89,4.781-10.671,10.687-10.671
	c5.875,0,10.656,4.781,10.656,10.671v42.663C373.24,271.663,368.459,276.429,362.584,276.429z"/>
<g>
</g>
<g>
</g>
<g>
</g>
<g>
</g>
<g>
</g>
<g>
</g>
<g>
</g>
<g>
</g>
<g>
</g>
<g>
</g>
<g>
</g>
<g>
</g>
<g>
</g>
<g>
</g>
<g>
</g>
</svg>
